<?xml version="1.0" encoding="UTF-8"?>
<svg id="Layer_2" data-name="Layer 2" xmlns="http://www.w3.org/2000/svg" viewBox="0 0 1464.02 249.46">
  <g id="Logoer">
    <g id="Logo_Distorted" data-name="Logo Distorted">
      <g>
        <path d="M162.22-19.92l-31.68,281.86-94.57-12.68L0,5.03,65.66-5.07c7.63,70.58,13.08,131.26,16.34,181.38,3.22-50.71,6.63-96.06,10.24-136.02l4.32-50.12,65.66-10.1Z"/>
        <path d="M314.97,149.87c0,33.17-.57,56.61-1.7,70.31-1.14,13.68-4.68,25.9-10.65,36.6-5.97,10.58-14.02,18.19-24.18,22.82-10.16,4.53-21.99,5.8-35.49,3.91-12.82-1.8-24.32-6.05-34.53-12.7-10.2-6.54-18.41-15.31-24.62-26.29-6.21-10.85-9.91-22.25-11.09-34.26-1.18-11.98-1.78-32.82-1.78-62.53v-49.38c0-29,.57-49.58,1.7-61.76,1.13-12.2,4.68-23.68,10.65-34.5,5.96-10.93,14.02-19.92,24.18-26.95,10.15-7.14,21.98-11.83,35.49-13.99,12.81-2.05,24.32-1.12,34.53,2.86,10.2,4.09,18.41,11.4,24.62,21.95,6.21,10.68,9.91,22.78,11.09,36.22,1.18,13.47,1.77,37.21,1.77,71.19v56.48ZM252.72,46.37c0-14.52-.62-23.75-1.85-27.67-1.23-3.91-3.77-5.64-7.62-5.22-3.25.36-5.74,2.25-7.47,5.67-1.73,3.41-2.59,12.99-2.59,28.77v143.14c0,17.8.57,28.83,1.7,33.09,1.13,4.27,3.77,6.6,7.91,6.98s6.95-1.8,8.13-6.57c1.18-4.78,1.77-16.37,1.77-34.75V46.37Z"/>
        <path d="M486.58-69.8l-35.71,172.19,39.11,207.75-64.33-8.63-25.21-155.42v152.04l-62.25-8.35V-46.98l62.25-9.57V81.24l27.73-142.06,58.41-8.98Z"/>
        <path d="M628.02,35.62l-57.82,3.85V9.56c0-13.96-.74-22.77-2.22-26.43-1.48-3.65-3.94-5.29-7.39-4.9-3.75.42-6.58,3.28-8.5,8.58-1.92,5.29-2.88,13.08-2.88,23.4,0,13.27,1.08,23.18,3.24,29.76,2.06,6.61,7.93,14.41,17.59,23.49,27.71,26.9,45.17,49.86,52.36,68.21,7.2,18.53,10.79,48.53,10.79,89.85,0,30.04-2,51.99-5.99,65.78-3.99,13.72-11.71,24.62-23.14,32.65-11.44,7.88-24.75,10.7-39.93,8.57-16.66-2.33-30.88-9.51-42.66-21.38-11.78-11.69-19.5-25.51-23.14-41.53-3.65-15.93-5.47-38.15-5.47-66.73v-24.96l57.82,1.79v48.42c0,14.91.81,24.57,2.44,28.97,1.63,4.42,4.51,6.81,8.65,7.19s7.22-2.08,9.24-7.38c2.02-5.32,3.03-13.4,3.03-24.24,0-23.83-1.92-39.48-5.77-46.94-3.94-7.42-13.66-19.78-29.13-36.85-15.48-16.84-25.73-28.84-30.76-36.25-5.03-7.35-9.19-17.5-12.49-30.46-3.3-12.89-4.95-29.43-4.95-49.65,0-29.16,2.34-50.75,7.02-64.86,4.68-14.2,12.25-25.93,22.7-35.23,10.45-9.41,23.07-15.35,37.86-17.71,16.17-2.58,29.94-.32,41.33,6.88,11.39,7.36,18.93,17.74,22.62,31.11,3.7,13.44,5.55,36.89,5.55,70.28v16.61Z"/>
        <path d="M652.71-95.35l103.81-15.96V-19.82l-41.55,4v84.43l38.89-1.62v86.83l-38.89-.51v97.9l45.69,3.49v91.73l-107.95-14.47V-95.35Z"/>
        <path d="M926.58-137.47l-31.68,501.9-94.57-12.68-35.97-464.28,65.66-10.1c7.63,131.2,13.08,243.16,16.34,335.24,3.22-93.11,6.63-176.11,10.24-248.95l4.32-91.04,65.66-10.1Z"/>
        <path d="M1128.27-168.49V-55.58l-41.85,4.02V53.15l39.33-1.64v107.2l-39.33-.52v121.42l44.81,3.43v113.08l-107.06-14.36v-96.03l-35.7-2.94-10.14,92.82-59.45-7.97,63.16-513.65,146.23-22.49ZM1024.17-52.82l-26.46,243.03,26.46.83V-52.82Z"/>
        <path d="M1149.12-171.7l44.07-6.78c29.38-4.52,49.26-4.75,59.67-.65,10.4,4.16,18.88,17.56,25.43,40.28,6.56,22.87,9.83,60.36,9.83,112.38,0,47.49-2.32,79.49-6.95,95.95-4.63,16.39-13.75,26.29-27.36,29.75,12.32,7.51,20.6,17.77,24.84,30.74,4.24,13.03,6.88,25.02,7.91,35.96,1.04,10.94,1.55,41.05,1.55,90.3v160.94l-57.82-7.75v-197.25c0-31.77-1.01-51.46-3.03-59.06-2.02-7.58-7.32-11.38-15.9-11.42v265.19l-62.25-8.35V-171.7ZM1211.38-80.64V50.14c7-.28,11.9-2.86,14.71-7.73,2.81-4.89,4.21-20.41,4.21-46.57v-32.63c0-18.82-1.36-31.03-4.07-36.62-2.71-5.58-7.67-7.98-14.86-7.23Z"/>
        <path d="M1460.62-219.6l-35.71,298.8,39.11,361.55-64.33-8.63-25.21-275.62v272.24l-62.25-8.35V-196.78l62.25-9.57V40.39l27.73-251.01,58.41-8.98Z"/>
      </g>
    </g>
  </g>
</svg>